# Blender 3.3.1
# www.blender.org
mtllib fireplace-practice-1.mtl
o Cube.001
v -3.642783 0.354549 -21.575485
v -3.344713 0.651286 -19.575682
v -3.642783 7.645452 -21.575483
v -3.344713 7.348714 -19.575682
v 3.648118 0.354549 -21.580341
v 3.352714 0.651286 -19.580145
v 3.648118 7.645452 -21.580341
v 3.352714 7.348714 -19.580145
v -3.641450 0.354549 -19.575485
v -3.641450 7.645452 -19.575485
v 3.649451 7.645452 -19.580341
v 3.649451 0.354549 -19.580343
v -3.344713 0.651286 -19.575682
v 3.352714 0.651286 -19.580145
v -3.642783 4.000000 -21.575483
v -3.641450 4.000000 -19.575485
v 3.648118 4.000000 -21.580341
v 3.649451 4.000000 -19.580343
v -3.344713 4.000000 -19.575682
v 3.352714 4.000000 -19.580145
v -3.642783 3.655745 -21.575483
v -3.641450 3.655745 -19.575485
v 3.648118 3.655745 -21.580341
v 3.649451 3.655745 -19.580343
v -3.344713 3.655745 -19.575682
v 3.352714 3.655745 -19.580145
v -3.344713 0.651286 -19.575682
v -3.344713 7.348714 -19.575682
v 3.352714 0.651286 -19.580145
v 3.352714 7.348714 -19.580145
v -3.344713 4.000000 -19.575682
v 3.352714 4.000000 -19.580145
v -3.344713 3.655745 -19.575682
v 3.352714 3.655745 -19.580145
v -3.345379 7.348714 -20.575682
v -3.345379 4.000000 -20.575682
v 3.352047 4.000000 -20.580145
v -3.345379 7.348714 -20.575682
v 3.352047 7.348714 -20.580145
v -3.345379 4.000000 -20.575682
v 3.352047 4.000000 -20.580145
v -3.346045 7.348714 -21.575682
v -3.346045 4.000000 -21.575682
v 3.351381 4.000000 -21.580145
v -3.346045 7.348714 -21.575682
v 3.351381 7.348714 -21.580145
v -3.346045 4.000000 -21.575682
v 3.351381 4.000000 -21.580145
v -3.344713 0.651286 -19.575682
v -3.344713 0.651286 -19.575682
v 3.352714 0.651286 -19.580145
v 3.352714 3.655745 -19.580145
v -3.344713 0.651286 -19.575682
v 3.352714 0.651286 -19.580145
v -3.344713 3.655745 -19.575682
v 3.352714 3.655745 -19.580145
v 3.352714 4.000000 -19.580145
v 3.352714 0.651286 -19.580145
v -3.344713 0.651286 -19.575682
v -3.344713 4.000000 -19.575682
v 3.351381 4.000000 -21.580145
v 3.351381 0.651286 -21.580145
v -3.346045 0.651286 -21.575682
v -3.346045 4.000000 -21.575682
vn -1.0000 -0.0000 0.0007
vn -0.0000 1.0000 -0.0000
vn 1.0000 -0.0000 -0.0007
vn -0.0000 -1.0000 -0.0000
vn -0.0007 -0.0000 -1.0000
vn 0.0007 -0.0000 1.0000
vt 0.375000 1.000000
vt 0.125000 0.750000
vt 0.375000 0.000000
vt 0.864825 0.739825
vt 0.375000 0.250000
vt 0.125000 0.500000
vt 0.864825 0.510175
vt 0.375000 0.750000
vt 0.635175 0.739825
vt 0.375000 0.500000
vt 0.635175 0.510175
vt 0.625000 1.000000
vt 0.875000 0.750000
vt 0.625000 0.000000
vt 0.625000 0.250000
vt 0.875000 0.500000
vt 0.625000 0.500000
vt 0.625000 0.750000
vt 0.864825 0.739825
vt 0.635175 0.739825
vt 0.375000 0.125000
vt 0.125000 0.625000
vt 0.625000 0.125000
vt 0.875000 0.625000
vt 0.375000 0.625000
vt 0.625000 0.625000
vt 0.864825 0.625000
vt 0.635175 0.625000
vt 0.375000 0.125000
vt 0.125000 0.625000
vt 0.625000 0.125000
vt 0.875000 0.625000
vt 0.375000 0.625000
vt 0.625000 0.625000
vt 0.000000 0.000000
vt 0.864825 0.625000
vt 0.000000 0.000000
vt 0.635175 0.625000
vt 0.864825 0.739825
vt 0.864825 0.510175
vt 0.635175 0.739825
vt 0.635175 0.510175
vt 0.864825 0.625000
vt 0.635175 0.625000
vt 0.000000 0.000000
vt 0.864825 0.625000
vt 0.000000 0.000000
vt 0.635175 0.625000
vt 0.864825 0.510175
vt 0.864825 0.625000
vt 0.635175 0.625000
vt 0.864825 0.510175
vt 0.635175 0.510175
vt 0.864825 0.625000
vt 0.635175 0.625000
vt 0.864825 0.510175
vt 0.864825 0.625000
vt 0.635175 0.625000
vt 0.864825 0.510175
vt 0.635175 0.510175
vt 0.864825 0.625000
vt 0.635175 0.625000
vt 0.864825 0.739825
vt 0.864825 0.739825
vt 0.635175 0.739825
vt 0.635175 0.625000
vt 0.864825 0.739825
vt 0.635175 0.739825
vt 0.864825 0.625000
vt 0.635175 0.625000
vt 0.635175 0.625000
vt 0.635175 0.739825
vt 0.864825 0.739825
vt 0.864825 0.625000
vt 0.635175 0.625000
vt 0.635175 0.739825
vt 0.864825 0.739825
vt 0.864825 0.625000
s 0
f 15/21/1 16/23/1 10/15/1 3/5/1
f 3/5/2 10/15/2 11/17/2 7/10/2
f 17/25/3 18/26/3 12/18/3 5/8/3
f 5/8/4 12/18/4 9/12/4 1/1/4
f 15/22/5 17/25/5 5/8/5 1/2/5
f 20/28/6 32/44/6 41/55/6 37/51/6
f 19/27/6 4/7/6 10/16/6 16/24/6
f 4/7/6 8/11/6 11/17/6 10/16/6
f 20/28/6 6/9/6 12/18/6 18/26/6
f 6/9/6 2/4/6 9/13/6 12/18/6
f 2/4/6 6/9/6 14/20/6 13/19/6
f 8/11/6 20/28/6 18/26/6 11/17/6
f 2/4/6 19/27/6 16/24/6 9/13/6
f 2/4/6 6/9/6 29/41/6 27/39/6
f 3/6/5 7/10/5 17/25/5 15/22/5
f 7/10/3 11/17/3 18/26/3 17/25/3
f 1/3/1 9/14/1 16/23/1 15/21/1
f 26/38/6 20/28/6 32/44/6 34/48/6
f 18/26/6 20/28/6 26/38/6 24/34/6
f 15/21/3 16/23/3 22/31/3 21/29/3
f 15/22/5 17/25/5 23/33/5 21/30/5
f 16/24/5 19/27/5 25/36/5 22/32/5
f 17/25/3 18/26/3 24/34/3 23/33/3
f 31/43/6 27/39/6 59/73/6 60/74/6
f 31/43/2 32/44/2 41/55/2 40/54/2
f 32/44/6 31/43/6 33/46/6 34/48/6
f 8/11/6 4/7/6 28/40/6 30/42/6
f 25/35/6 26/37/6 34/47/6 33/45/6
f 19/27/6 2/4/6 27/39/6 31/43/6
f 19/27/6 25/36/6 33/46/6 31/43/6
f 6/9/6 20/28/6 32/44/6 29/41/6
f 20/28/6 8/11/6 30/42/6 32/44/6
f 38/52/6 35/49/6 42/56/6 45/59/6
f 35/49/3 36/50/3 43/57/3 42/56/3
f 19/27/6 31/43/6 40/54/6 36/50/6
f 4/7/3 19/27/3 36/50/3 35/49/3
f 32/44/1 30/42/1 39/53/1 41/55/1
f 28/40/6 4/7/6 35/49/6 38/52/6
f 30/42/4 28/40/4 38/52/4 39/53/4
f 42/56/6 43/57/6 47/61/6 45/59/6
f 46/60/6 45/59/6 47/61/6 48/62/6
f 40/54/2 41/55/2 48/62/2 47/61/2
f 39/53/4 38/52/4 45/59/4 46/60/4
f 37/51/6 41/55/6 48/62/6 44/58/6
f 36/50/6 40/54/6 47/61/6 43/57/6
f 41/55/1 39/53/1 46/60/1 48/62/1
f 13/19/6 14/20/6 51/65/6 50/64/6
f 33/46/6 34/48/6 56/70/6 55/69/6
f 29/41/6 27/39/6 53/67/6 54/68/6
f 27/39/6 2/4/6 49/63/6 53/67/6
f 34/48/6 26/38/6 52/66/6 56/70/6
f 2/4/6 13/19/6 50/64/6 49/63/6
f 58/72/1 57/71/1 61/75/1 62/76/1
f 29/41/6 32/44/6 57/71/6 58/72/6
f 27/39/6 29/41/6 58/72/6 59/73/6
f 32/44/6 31/43/6 60/74/6 57/71/6
f 61/75/6 64/78/6 63/77/6 62/76/6
f 57/71/4 60/74/4 64/78/4 61/75/4
f 59/73/2 58/72/2 62/76/2 63/77/2
f 60/74/3 59/73/3 63/77/3 64/78/3
